# xmcd
#
# Track frame offsets: 
#        150
#        10155
#        20950
#        33240
#        43267
#        53565
#        63407
#        74757
#        82967
#        92897
#        106597
#        114582
#        122980
#        136380
#        147972
#        159650
#        178247
#        192260
#
# Disc length: 2794 seconds
#
# Revision: 1
# Processed by: cddbd v1.5.2PL0 Copyright (c) Steve Scherf et al.
# Submitted via: ExactAudioCopy v1.0b3
#
DISCID=040ae812
DTITLE=Johnny Cash - The Essential CD 1
DYEAR=2002
DGENRE=
TTITLE0=Hey Porter
TTITLE1=Cry, Cry, Cry
TTITLE2=I Walk The Line
TTITLE3=Get Rhythm
TTITLE4=There You Go
TTITLE5=Ballad Of A Teenage Queen
TTITLE6=Big River
TTITLE7=Guess Things Happen That Way
TTITLE8=All Over Again
TTITLE9=Don't Take Your Guns To Town
TTITLE10=Five Feet High And Rising
TTITLE11=The Rebel - Johnny Yuma
TTITLE12=Tennessee Flat-Top Box
TTITLE13=I Still Miss Someone
TTITLE14=Ring Of Fire
TTITLE15=The Ballad Of Ira Hayes
TTITLE16=Orange Blossom Special
TTITLE17=Were You There (When They Crusified My Lord)
EXTD=
EXTT0=
EXTT1=
EXTT2=
EXTT3=
EXTT4=
EXTT5=
EXTT6=
EXTT7=
EXTT8=
EXTT9=
EXTT10=
EXTT11=
EXTT12=
EXTT13=
EXTT14=
EXTT15=
EXTT16=
EXTT17=
PLAYORDER=
